<svg width="32" height="32" viewBox="0 0 32 32" fill="none" xmlns="http://www.w3.org/2000/svg">
<g clip-path="url(#clip0_9307_1183)">
<path opacity="0.1" d="M30 12.9999H26.95C26.79 12.5499 25.84 10.8399 25.63 10.4199L27.3 8.74994C28.06 7.98994 28.3 7.37994 27.49 6.61994L24.75 3.87994C23.99 3.11994 23.64 3.73994 22.88 4.48994L21.12 6.24994C20.81 6.10994 19.32 5.16994 19 5.04994V1.99994C19 1.49994 19 0.999944 17.94 0.999944H14.06C13.9196 0.968674 13.7737 0.97227 13.6351 1.01042C13.4965 1.04857 13.3693 1.12011 13.2647 1.21878C13.1601 1.31745 13.0813 1.44024 13.0352 1.57642C12.989 1.7126 12.9769 1.85802 13 1.99994V5.04994C12.61 5.18994 11.07 6.11994 10.71 6.28994L8.49997 4.28994C7.74997 3.56994 7.99997 3.36994 6.82997 3.91994L4.08997 6.65994C3.94116 6.80599 3.82711 6.98365 3.75627 7.17976C3.68544 7.37586 3.65963 7.58539 3.68075 7.79283C3.70188 8.00026 3.76941 8.20028 3.87832 8.37808C3.98724 8.55588 4.13477 8.70689 4.30997 8.81994L6.15997 10.6699C5.99997 10.9999 5.18997 12.6099 5.04997 12.9999H1.99997C1.8624 12.9699 1.71947 12.9749 1.58434 13.0145C1.4492 13.0541 1.3262 13.127 1.22662 13.2266C1.12705 13.3262 1.0541 13.4492 1.0145 13.5843C0.974893 13.7195 0.969896 13.8624 0.999966 13.9999V17.9999C0.999966 18.8999 2.25997 18.9999 1.99997 18.9999H4.99997C5.10997 19.3199 5.93997 20.6899 6.07997 20.9999L4.07997 22.9999C3.31997 23.7599 3.02997 24.5599 3.77997 25.3199L6.49997 28.0799C7.25997 28.8399 7.67997 28.5599 8.43997 27.8099L10.37 25.8799C10.79 26.0899 12.51 26.8799 12.95 27.0899L13 29.9999C13.13 30.2499 12.93 30.9999 14 30.9999H18C18.2652 30.9999 18.5195 30.8946 18.7071 30.7071C18.8946 30.5195 19 30.2652 19 29.9999V26.9999C19.39 26.8599 20.71 25.9199 21.08 25.7499L22.93 27.5999C23.0585 27.7856 23.2276 27.9396 23.4244 28.0503C23.6212 28.161 23.8405 28.2255 24.0659 28.239C24.2913 28.2525 24.5168 28.2146 24.7254 28.1281C24.934 28.0416 25.1202 27.9089 25.27 27.7399L28 24.9999C28.76 24.2399 28.23 24.0599 27.47 23.3099L25.62 21.4599C25.79 21.0899 26.81 19.3899 26.94 18.9999H30C30.14 19.0139 30.2815 18.9956 30.4133 18.9463C30.5452 18.8971 30.664 18.8182 30.7606 18.7158C30.8572 18.6134 30.929 18.4902 30.9705 18.3557C31.012 18.2212 31.0221 18.079 31 17.9399V14.0599C31.0221 13.9209 31.012 13.7787 30.9705 13.6442C30.929 13.5097 30.8572 13.3865 30.7606 13.2841C30.664 13.1817 30.5452 13.1028 30.4133 13.0536C30.2815 13.0043 30.14 12.986 30 12.9999ZM16 20.8799C15.3489 20.9211 14.6965 20.823 14.0863 20.5922C13.4761 20.3614 12.9221 20.0032 12.4613 19.5414C12.0004 19.0796 11.6433 18.5249 11.4138 17.9142C11.1842 17.3035 11.0874 16.651 11.13 15.9999C11.1233 15.3585 11.2447 14.7223 11.487 14.1284C11.7294 13.5345 12.0879 12.995 12.5414 12.5414C12.995 12.0879 13.5345 11.7294 14.1284 11.487C14.7223 11.2447 15.3586 11.1233 16 11.1299C17.283 11.1603 18.5051 11.6829 19.4135 12.5894C20.3219 13.4959 20.847 14.717 20.88 15.9999C20.8936 16.6445 20.7767 17.2852 20.5363 17.8834C20.2959 18.4817 19.9369 19.0251 19.481 19.481C19.0251 19.9369 18.4817 20.2958 17.8835 20.5363C17.2852 20.7767 16.6446 20.8936 16 20.8799Z" fill="white"/>
<path d="M18 2V4.7C17.9988 5.11393 18.1262 5.51803 18.3644 5.85655C18.6026 6.19507 18.94 6.45133 19.33 6.59C19.62 6.69 19.89 6.8 20.15 6.92C20.521 7.09112 20.9355 7.14452 21.3378 7.07301C21.74 7.0015 22.1107 6.80851 22.4 6.52L24.22 4.7L27 7.51L25.32 9.24C25.022 9.5363 24.8249 9.91894 24.7567 10.3336C24.6885 10.7482 24.7526 11.1739 24.94 11.55C25.1226 11.9132 25.2829 12.2873 25.42 12.67C25.5581 13.0584 25.8128 13.3947 26.1494 13.6327C26.4859 13.8708 26.8878 13.9991 27.3 14H30V18H27.3C26.8861 17.9988 26.482 18.1262 26.1435 18.3644C25.8049 18.6026 25.5487 18.94 25.41 19.33C25.2947 19.6703 25.1612 20.0041 25.01 20.33C24.8308 20.7036 24.7721 21.1237 24.842 21.5321C24.9118 21.9405 25.1068 22.3172 25.4 22.61L27.31 24.52L24.48 27.35L22.57 25.44C22.2838 25.1406 21.9116 24.9375 21.505 24.8587C21.0984 24.7799 20.6774 24.8293 20.3 25C19.9741 25.1513 19.6403 25.2848 19.3 25.4C18.914 25.5442 18.5819 25.8041 18.3492 26.1442C18.1165 26.4843 17.9946 26.888 18 27.3V30H14V27.3C14.0012 26.8861 13.8738 26.482 13.6356 26.1435C13.3974 25.8049 13.06 25.5487 12.67 25.41C12.2873 25.2729 11.9132 25.1126 11.55 24.93C11.1739 24.7426 10.7482 24.6785 10.3336 24.7467C9.91894 24.8149 9.5363 25.012 9.24 25.31L7.24 27.31L4.41 24.49L6.5 22.4C6.78851 22.1107 6.9815 21.74 7.05301 21.3378C7.12452 20.9355 7.07112 20.521 6.9 20.15C6.78 19.9 6.67 19.62 6.57 19.33C6.43248 18.9432 6.17926 18.6081 5.84472 18.3701C5.51018 18.1322 5.11052 18.003 4.7 18H2V14H4.7C5.11393 14.0012 5.51803 13.8738 5.85655 13.6356C6.19507 13.3974 6.45133 13.06 6.59 12.67C6.70527 12.3297 6.8388 11.9959 6.99 11.67C7.16919 11.2964 7.22791 10.8763 7.15805 10.4679C7.08818 10.0595 6.89319 9.68282 6.6 9.39L4.69 7.51L7.51 4.69L9.42 6.59C9.7105 6.88649 10.0861 7.08525 10.4946 7.15871C10.9031 7.23218 11.3244 7.17671 11.7 7C12.0259 6.8488 12.3597 6.71527 12.7 6.6C13.086 6.45581 13.4181 6.1959 13.6508 5.8558C13.8835 5.51571 14.0054 5.11204 14 4.7V2H18ZM16 22C17.1867 22 18.3467 21.6481 19.3334 20.9888C20.3201 20.3295 21.0892 19.3925 21.5433 18.2961C21.9974 17.1997 22.1162 15.9933 21.8847 14.8295C21.6532 13.6656 21.0818 12.5965 20.2426 11.7574C19.4035 10.9182 18.3344 10.3468 17.1705 10.1153C16.0067 9.88378 14.8003 10.0026 13.7039 10.4567C12.6075 10.9108 11.6705 11.6799 11.0112 12.6666C10.3519 13.6533 10 14.8133 10 16C10 17.5913 10.6321 19.1174 11.7574 20.2426C12.8826 21.3679 14.4087 22 16 22ZM18 0H14C13.4696 0 12.9609 0.210714 12.5858 0.585786C12.2107 0.960859 12 1.46957 12 2V4.7C11.6052 4.8395 11.218 4.99972 10.84 5.18L8.93 3.27C8.74425 3.08405 8.52368 2.93653 8.28088 2.83588C8.03808 2.73523 7.77783 2.68343 7.515 2.68343C7.25217 2.68343 6.99192 2.73523 6.74912 2.83588C6.50632 2.93653 6.28575 3.08405 6.1 3.27L3.27 6.1C3.08405 6.28575 2.93653 6.50632 2.83588 6.74912C2.73523 6.99192 2.68343 7.25217 2.68343 7.515C2.68343 7.77783 2.73523 8.03808 2.83588 8.28088C2.93653 8.52368 3.08405 8.74425 3.27 8.93L5.18 10.84C4.9997 11.218 4.83948 11.6052 4.7 12H2C1.46957 12 0.960859 12.2107 0.585786 12.5858C0.210714 12.9609 0 13.4696 0 14L0 18C0 18.5304 0.210714 19.0391 0.585786 19.4142C0.960859 19.7893 1.46957 20 2 20H4.7C4.82 20.33 4.95 20.66 5.09 21L3 23.07C2.81405 23.2557 2.66653 23.4763 2.56588 23.7191C2.46523 23.9619 2.41343 24.2222 2.41343 24.485C2.41343 24.7478 2.46523 25.0081 2.56588 25.2509C2.66653 25.4937 2.81405 25.7143 3 25.9L5.83 28.73C6.01575 28.916 6.23632 29.0635 6.47912 29.1641C6.72192 29.2648 6.98217 29.3166 7.245 29.3166C7.50783 29.3166 7.76808 29.2648 8.01088 29.1641C8.25368 29.0635 8.47425 28.916 8.66 28.73L10.66 26.73C11.0946 26.9471 11.5421 27.1375 12 27.3V30C12 30.5304 12.2107 31.0391 12.5858 31.4142C12.9609 31.7893 13.4696 32 14 32H18C18.5304 32 19.0391 31.7893 19.4142 31.4142C19.7893 31.0391 20 30.5304 20 30V27.3C20.3948 27.1605 20.7821 27.0003 21.16 26.82L23.07 28.73C23.2557 28.916 23.4763 29.0635 23.7191 29.1641C23.9619 29.2648 24.2222 29.3166 24.485 29.3166C24.7478 29.3166 25.0081 29.2648 25.2509 29.1641C25.4937 29.0635 25.7143 28.916 25.9 28.73L28.73 25.9C28.916 25.7143 29.0635 25.4937 29.1641 25.2509C29.2648 25.0081 29.3166 24.7478 29.3166 24.485C29.3166 24.2222 29.2648 23.9619 29.1641 23.7191C29.0635 23.4763 28.916 23.2557 28.73 23.07L26.82 21.16C27.0003 20.782 27.1605 20.3948 27.3 20H30C30.5304 20 31.0391 19.7893 31.4142 19.4142C31.7893 19.0391 32 18.5304 32 18V14C32 13.4696 31.7893 12.9609 31.4142 12.5858C31.0391 12.2107 30.5304 12 30 12H27.3C27.1379 11.5387 26.9475 11.0879 26.73 10.65L28.45 8.93C28.636 8.74425 28.7835 8.52368 28.8841 8.28088C28.9848 8.03808 29.0366 7.77783 29.0366 7.515C29.0366 7.25217 28.9848 6.99192 28.8841 6.74912C28.7835 6.50632 28.636 6.28575 28.45 6.1L25.63 3.27C25.4443 3.08405 25.2237 2.93653 24.9809 2.83588C24.7381 2.73523 24.4778 2.68343 24.215 2.68343C23.9522 2.68343 23.6919 2.73523 23.4491 2.83588C23.2063 2.93653 22.9857 3.08405 22.8 3.27L21 5.09C20.68 4.94 20.35 4.81 20 4.7V2C20 1.46957 19.7893 0.960859 19.4142 0.585786C19.0391 0.210714 18.5304 0 18 0V0ZM16 20C15.2089 20 14.4355 19.7654 13.7777 19.3259C13.1199 18.8864 12.6072 18.2616 12.3045 17.5307C12.0017 16.7998 11.9225 15.9956 12.0769 15.2196C12.2312 14.4437 12.6122 13.731 13.1716 13.1716C13.731 12.6122 14.4437 12.2312 15.2196 12.0769C15.9956 11.9225 16.7998 12.0017 17.5307 12.3045C18.2616 12.6072 18.8864 13.1199 19.3259 13.7777C19.7654 14.4355 20 15.2089 20 16C20 17.0609 19.5786 18.0783 18.8284 18.8284C18.0783 19.5786 17.0609 20 16 20Z" fill="#6FA6D4"/>
</g>
<defs>
<clipPath id="clip0_9307_1183">
<rect width="32" height="32" fill="white"/>
</clipPath>
</defs>
</svg>
